<?xml version="1.0" encoding="utf-8"?>
<!-- Generator: Adobe Illustrator 16.0.0, SVG Export Plug-In . SVG Version: 6.00 Build 0)  -->
<!DOCTYPE svg PUBLIC "-//W3C//DTD SVG 1.1//EN" "http://www.w3.org/Graphics/SVG/1.1/DTD/svg11.dtd">
<svg version="1.1" id="Layer_1" xmlns="http://www.w3.org/2000/svg" xmlns:xlink="http://www.w3.org/1999/xlink" x="0px" y="0px"
	 width="100px" height="100px" viewBox="0 0 100 100" enable-background="new 0 0 100 100" xml:space="preserve">
<g id="그룹_4962" transform="translate(-1225 -1049)">
	<g id="그룹_4954" transform="translate(-70.341 1570.356)">
		<path id="패스_732" fill="#808080" d="M1370.243-504.957c-2.852-2.91-6.758-4.546-10.832-4.539
			c-4.069-0.008-7.971,1.624-10.819,4.527l-3.109,3.028l-3.101-3.016c-2.853-2.91-6.757-4.546-10.833-4.539
			c-4.075-0.007-7.98,1.629-10.833,4.539c-3.306,3.342-4.919,8.003-4.386,12.674c0.052,0.495,0.495,0.854,0.989,0.8
			c0.001,0,0.002,0,0.003,0c0.495-0.052,0.853-0.496,0.8-0.99c0-0.001,0-0.002,0-0.003c-0.473-4.131,0.954-8.254,3.878-11.211
			c2.516-2.565,5.959-4.007,9.552-4c3.6-0.005,7.048,1.443,9.564,4.016l3.737,3.639c0.35,0.34,0.907,0.34,1.256,0l3.75-3.651
			c2.517-2.565,5.959-4.007,9.552-4c3.594-0.007,7.036,1.435,9.553,4c5.274,5.375,5.274,13.985,0,19.36l-23.481,23.759
			l-19.745-19.978c-0.349-0.354-0.919-0.356-1.272-0.007l0,0c-0.354,0.35-0.355,0.918-0.008,1.271l20.386,20.625
			c0.169,0.172,0.399,0.268,0.64,0.27c0.241-0.002,0.471-0.098,0.642-0.27l24.123-24.406
			C1376.217-489.136,1376.215-498.878,1370.243-504.957z"/>
		<path id="패스_733" fill="#808080" d="M1330.868-486.602l1.787-2.084l4.811,10.423c0.149,0.336,0.49,0.543,0.856,0.522
			c0.365-0.016,0.684-0.249,0.808-0.593l4.948-13.7l5.501,17.271c0.104,0.331,0.391,0.572,0.734,0.619
			c0.041,0.006,0.08,0.008,0.12,0.008c0.306,0,0.589-0.153,0.755-0.408l6.75-10.349c0.27-0.416,0.153-0.973-0.263-1.244
			c-0.416-0.271-0.976-0.154-1.246,0.262l-5.713,8.76l-5.724-17.989c-0.117-0.367-0.455-0.62-0.841-0.627
			c-0.385-0.008-0.733,0.231-0.864,0.594l-5.1,14.135l-4.48-9.707c-0.128-0.279-0.39-0.473-0.694-0.515
			c-0.303-0.042-0.607,0.073-0.807,0.306l-2.43,2.835h-9.034c-0.497,0-0.9,0.403-0.9,0.899l0,0c0,0.498,0.403,0.9,0.9,0.9l0,0h9.448
			C1330.453-486.288,1330.699-486.403,1330.868-486.602z"/>
	</g>
</g>
<text transform="matrix(1 0 0 1 33.9023 89.6738)" fill="#808080" font-family="'NanumGothicBold'" font-size="17.1666">의료</text>
</svg>
