<?xml version="1.0" encoding="utf-8"?>
<!-- Generator: Adobe Illustrator 16.0.0, SVG Export Plug-In . SVG Version: 6.00 Build 0)  -->
<!DOCTYPE svg PUBLIC "-//W3C//DTD SVG 1.1//EN" "http://www.w3.org/Graphics/SVG/1.1/DTD/svg11.dtd">
<svg version="1.1" id="Layer_1" xmlns="http://www.w3.org/2000/svg" xmlns:xlink="http://www.w3.org/1999/xlink" x="0px" y="0px"
	 width="100px" height="100px" viewBox="0 0 100 100" enable-background="new 0 0 100 100" xml:space="preserve">
<g id="그룹_4963" transform="translate(-1343 -1049)">
	<g id="그룹_4955" transform="translate(-105.957 1569.125)">
		<path id="패스_734" fill="#FFFFFF" d="M1489.738-463.473c0.497,0,0.9-0.403,0.9-0.899l0,0v-38.694c0-0.497-0.403-0.9-0.9-0.9
			l0,0h-7.649c-0.497,0-0.899,0.403-0.899,0.9l0,0v38.694c0,0.496,0.402,0.899,0.899,0.899l0,0H1489.738z M1482.989-502.166h5.849
			v36.893h-5.849V-502.166z"/>
		<path id="패스_735" fill="#FFFFFF" d="M1495.584-496.767h13.039c0.496,0,0.898-0.403,0.898-0.9l0,0v-5.4
			c0-0.497-0.402-0.9-0.898-0.9l0,0h-13.039c-0.497,0-0.899,0.403-0.899,0.9l0,0v5.4
			C1494.684-497.169,1495.087-496.767,1495.584-496.767L1495.584-496.767z M1496.484-502.167h11.239v3.6h-11.239V-502.167z"/>
		<path id="패스_736" fill="#FFFFFF" d="M1494.684-486.869c0,0.498,0.402,0.9,0.899,0.9l0,0h13.038c0.496,0,0.898-0.402,0.898-0.9
			l0,0v-5.399c0-0.497-0.4-0.9-0.898-0.9l0,0h-13.038c-0.497,0-0.899,0.403-0.899,0.9l0,0V-486.869z M1496.484-491.369h11.239v3.6
			h-11.239V-491.369z"/>
		<path id="패스_737" fill="#FFFFFF" d="M1494.684-476.071c0,0.498,0.402,0.9,0.899,0.9l0,0h13.038c0.496,0,0.898-0.402,0.898-0.9
			l0,0v-5.399c0-0.497-0.4-0.899-0.898-0.899l0,0h-13.038c-0.497,0-0.899,0.402-0.899,0.899l0,0V-476.071z M1496.484-480.571h11.239
			v3.601h-11.239V-480.571z"/>
		<path id="패스_738" fill="#FFFFFF" d="M1494.684-465.271c0,0.496,0.402,0.899,0.899,0.899l0,0h13.038
			c0.496,0,0.898-0.403,0.898-0.899l0,0v-5.397c0-0.496-0.4-0.9-0.898-0.9l0,0h-13.038c-0.497,0-0.899,0.404-0.899,0.9l0,0V-465.271
			z M1496.484-469.772h11.239v3.6h-11.239V-469.772z"/>
		<path id="패스_739" fill="#FFFFFF" d="M1523.475-504.866h-6.4c-0.52-3.112-3.211-5.396-6.365-5.4H1480
			c-3.567,0.004-6.458,2.896-6.462,6.463v39.879c0,0.496,0.403,0.898,0.9,0.898l0,0c0.497,0,0.899-0.402,0.899-0.898l0,0v-39.879
			c0.004-2.574,2.09-4.66,4.663-4.663h30.708c2.571,0.003,4.66,2.089,4.662,4.663v39.879c0,0.496,0.401,0.898,0.899,0.898l0,0
			c0.494,0,0.897-0.402,0.897-0.898l0,0v-16.646h6.299c0.498,0,0.899-0.403,0.899-0.9l0,0v-22.5
			C1524.369-504.464,1523.969-504.864,1523.475-504.866z M1522.574-482.366h-5.4v-20.7h5.4V-482.366z"/>
		<path id="패스_740" fill="#FFFFFF" d="M1523.475-459.424h-49.031c-0.497,0-0.9,0.402-0.9,0.898l0,0
			c0,0.498,0.403,0.897,0.9,0.897l0,0h49.031c0.496,0,0.9-0.399,0.9-0.896c0-0.002,0-0.002,0-0.002
			C1524.375-459.021,1523.971-459.424,1523.475-459.424L1523.475-459.424z"/>
	</g>
</g>
<text transform="matrix(1 0 0 1 33.4463 89.6738)" fill="#FFFFFF" font-family="'NanumGothicBold'" font-size="17.1666">호텔</text>
</svg>
