<?xml version="1.0" encoding="utf-8"?>
<!-- Generator: Adobe Illustrator 16.0.0, SVG Export Plug-In . SVG Version: 6.00 Build 0)  -->
<!DOCTYPE svg PUBLIC "-//W3C//DTD SVG 1.1//EN" "http://www.w3.org/Graphics/SVG/1.1/DTD/svg11.dtd">
<svg version="1.1" id="Layer_1" xmlns="http://www.w3.org/2000/svg" xmlns:xlink="http://www.w3.org/1999/xlink" x="0px" y="0px"
	 width="100px" height="100px" viewBox="0 0 100 100" enable-background="new 0 0 100 100" xml:space="preserve">
<g id="Group_5398" transform="translate(-517 -1049)">
	<path id="Path_2466" fill="#FFFFFF" d="M592.813,1084.775h-2.893c-0.512-11.912-10.052-21.453-21.966-21.965v-2.893
		c0-0.528-0.429-0.957-0.956-0.957c-0.528,0-0.956,0.429-0.956,0.957v2.893c-11.913,0.511-21.455,10.052-21.966,21.965h-2.892
		c-0.528,0-0.956,0.428-0.956,0.956c0,0.528,0.428,0.956,0.956,0.956h2.892c0.511,11.912,10.053,21.456,21.966,21.965v2.893
		c0,0.527,0.428,0.957,0.956,0.957c0.527,0,0.956-0.43,0.956-0.957v-2.893c11.914-0.51,21.456-10.053,21.966-21.965h2.895
		c0.527,0,0.955-0.428,0.955-0.956C593.771,1085.203,593.344,1084.775,592.813,1084.775L592.813,1084.775z M588.008,1084.775h-1.77
		c-0.5-9.883-8.398-17.782-18.281-18.283v-1.77C578.813,1065.23,587.5,1073.918,588.008,1084.775L588.008,1084.775z
		 M580.982,1082.219c-0.525,0-0.955,0.428-0.955,0.955v1.601h-5.656v-0.7c0-0.527-0.43-0.956-0.957-0.956s-0.955,0.429-0.955,0.956
		l0,0v0.7h-1.918c-0.527,0-0.957,0.429-0.957,0.956s0.43,0.955,0.957,0.955l0,0h1.916v0.701c0,0.527,0.428,0.955,0.957,0.955
		c0.525,0,0.955-0.428,0.955-0.955v-0.701h5.656v1.602c0,0.527,0.43,0.955,0.957,0.955c0.526,0,0.955-0.428,0.955-0.955v-1.602
		h2.389c-0.496,8.828-7.543,15.876-16.371,16.371v-2.385h1.602c0.527,0,0.955-0.43,0.955-0.957c0-0.527-0.428-0.955-0.955-0.955
		h-1.602v-5.656h0.699c0.527,0,0.957-0.428,0.957-0.955s-0.43-0.957-0.957-0.957h-0.699v-1.918c0-0.527-0.428-0.955-0.957-0.955
		c-0.528,0-0.956,0.428-0.956,0.955l0,0v1.918h-0.7c-0.528,0-0.956,0.43-0.956,0.957s0.428,0.955,0.956,0.955h0.7v5.658h-1.6
		c-0.528,0-0.956,0.428-0.956,0.957c0,0.527,0.428,0.955,0.956,0.955h1.6v2.387c-8.829-0.494-15.876-7.542-16.371-16.371h2.385v1.6
		c0,0.527,0.428,0.957,0.956,0.957c0.528,0,0.956-0.43,0.956-0.957v-1.6h5.658v0.699c0,0.529,0.428,0.957,0.956,0.957
		s0.956-0.428,0.956-0.957v-0.699h1.918c0.528,0,0.956-0.428,0.956-0.956c0-0.528-0.428-0.956-0.956-0.956h-1.918v-0.699
		c0-0.529-0.428-0.957-0.956-0.957s-0.956,0.428-0.956,0.957v0.699h-5.658v-1.6c0-0.528-0.428-0.956-0.956-0.956
		c-0.528,0-0.956,0.428-0.956,0.956v1.6h-2.386c0.494-8.83,7.543-15.879,16.373-16.373v2.387h-1.6c-0.528,0-0.956,0.428-0.956,0.955
		c0,0.528,0.428,0.957,0.956,0.957h1.6v5.657h-0.7c-0.528,0-0.956,0.429-0.956,0.956c0,0.528,0.428,0.956,0.956,0.956l0,0h0.7v1.919
		c0,0.528,0.428,0.956,0.956,0.956c0.528,0,0.958-0.428,0.958-0.956v-1.919h0.699c0.527,0,0.955-0.428,0.955-0.956
		c0-0.527-0.428-0.956-0.955-0.956h-0.699v-5.655h1.6c0.527,0,0.957-0.429,0.957-0.957c0-0.527-0.43-0.955-0.957-0.955l0,0h-1.6
		v-2.389c8.828,0.495,15.875,7.543,16.369,16.371h-2.387v-1.6c0-0.528-0.426-0.957-0.953-0.959h-0.002L580.982,1082.219
		L580.982,1082.219z M566.043,1064.719v1.77c-9.886,0.498-17.789,8.4-18.287,18.287h-1.771c0.508-10.859,9.198-19.548,20.058-20.053
		V1064.719z M545.99,1086.684h1.767c0.5,9.883,8.4,17.783,18.283,18.283v1.77c-10.855-0.508-19.541-9.189-20.05-20.045
		L545.99,1086.684L545.99,1086.684z M567.957,1106.74v-1.77c9.883-0.5,17.783-8.404,18.281-18.287h1.771
		C587.502,1097.545,578.814,1106.234,567.957,1106.74z"/>
</g>
<text transform="matrix(1 0 0 1 25.9351 89.7734)" fill="#FFFFFF" font-family="'NanumGothicBold'" font-size="17.1666">군기관</text>
</svg>
