<?xml version="1.0" encoding="utf-8"?>
<!-- Generator: Adobe Illustrator 16.0.0, SVG Export Plug-In . SVG Version: 6.00 Build 0)  -->
<!DOCTYPE svg PUBLIC "-//W3C//DTD SVG 1.1//EN" "http://www.w3.org/Graphics/SVG/1.1/DTD/svg11.dtd">
<svg version="1.1" id="Layer_1" xmlns="http://www.w3.org/2000/svg" xmlns:xlink="http://www.w3.org/1999/xlink" x="0px" y="0px"
	 width="100px" height="100px" viewBox="0 0 100 100" enable-background="new 0 0 100 100" xml:space="preserve">
<text transform="matrix(1 0 0 1 16.5923 89.6738)" fill="#FFFFFF" font-family="'NanumGothicBold'" font-size="17.1666">유통/운송</text>
<g id="그룹_4961" transform="translate(-1107 -1049)">
	<g id="그룹_4953" transform="translate(-34.622 1570.14)">
		<path id="패스_727" fill="#FFFFFF" d="M1213.151-484.508h-3.776l0.015-4.631h7.349c0.498,0,0.897-0.403,0.897-0.899
			c0-0.001,0-0.001,0-0.001v-6.244h-1.801v5.344h-6.439l0.027-8.533c0.008-1.357-0.529-2.662-1.49-3.62
			c-0.957-0.963-2.258-1.504-3.615-1.5h-20.798c-1.356-0.003-2.658,0.537-3.613,1.5c-0.96,0.957-1.498,2.258-1.493,3.614
			l0.009,8.543h-6.228v-5.981h-1.8v6.882c0,0.496,0.403,0.899,0.9,0.899l0,0h7.129l0.005,4.631h-3.737c-3,0-4.934,2.29-4.934,5.835
			v16.05h5.1c0.445,2.881,2.923,5.01,5.839,5.017c2.916-0.007,5.395-2.136,5.84-5.017h14.765c0.444,2.881,2.926,5.01,5.84,5.017
			c2.916-0.007,5.395-2.136,5.84-5.017h5.1v-16.05C1218.085-482.218,1216.147-484.508,1213.151-484.508z M1180.698-459.408
			c-1.924-0.004-3.59-1.338-4.013-3.215h8.027C1184.289-460.745,1182.623-459.411,1180.698-459.408L1180.698-459.408z
			 M1207.144-459.408c-1.926-0.004-3.592-1.338-4.014-3.215h8.023C1210.733-460.745,1209.067-459.411,1207.144-459.408
			L1207.144-459.408z M1216.285-464.423h-44.729v-3.699h44.729V-464.423z M1171.556-469.917v-8.752c0-0.947,0.226-4.035,3.134-4.035
			h5.538l-0.018-16.775c-0.003-0.878,0.345-1.721,0.968-2.341c0.619-0.623,1.461-0.972,2.339-0.969h20.798
			c0.879-0.002,1.724,0.348,2.342,0.971c0.623,0.621,0.971,1.466,0.966,2.345l-0.054,16.769h5.582c2.908,0,3.134,3.088,3.134,4.035
			v8.752H1171.556z"/>
		<path id="패스_728" fill="#FFFFFF" d="M1203.507-498.666h-19.173c-0.497,0-0.9,0.403-0.9,0.9l0,0v10.966
			c0,0.497,0.403,0.9,0.9,0.9l0,0h19.173c0.497,0,0.898-0.403,0.898-0.9l0,0v-10.966
			C1204.405-498.263,1204.005-498.666,1203.507-498.666z M1202.608-487.701h-17.375v-9.166h17.375V-487.701z"/>
		<path id="패스_729" fill="#FFFFFF" d="M1172.193-504.375c-0.053-2.209,1.691-4.045,3.9-4.105h35.852
			c2.209,0.06,3.952,1.896,3.897,4.105v2.856h1.801v-2.856c0.051-3.201-2.498-5.839-5.698-5.9h-35.85
			c-3.201,0.063-5.75,2.699-5.7,5.9v2.856h1.8L1172.193-504.375L1172.193-504.375z"/>
		<path id="패스_730" fill="#FFFFFF" d="M1178.675-479.939c-2.128-0.139-3.967,1.473-4.112,3.6
			c-0.138,2.129,1.472,3.967,3.6,4.111c0.087,0.006,0.172,0.008,0.258,0.008c2.032-0.004,3.715-1.578,3.853-3.607l0,0
			C1182.414-477.954,1180.803-479.794,1178.675-479.939z M1178.282-474.025c-1.138-0.078-1.998-1.063-1.923-2.199
			c0.074-1.084,0.973-1.926,2.058-1.928c0.046,0,0.092,0,0.138,0c1.138,0.078,1.998,1.063,1.923,2.199
			c-0.077,1.139-1.059,2-2.196,1.926L1178.282-474.025L1178.282-474.025z"/>
		<path id="패스_731" fill="#FFFFFF" d="M1209.679-479.939c-2.129-0.141-3.97,1.471-4.111,3.6
			c-0.068,1.023,0.271,2.031,0.949,2.801c0.672,0.771,1.627,1.244,2.649,1.311c0.089,0.004,0.175,0.008,0.263,0.008
			c0.938,0,1.838-0.34,2.539-0.957c0.771-0.674,1.244-1.629,1.311-2.652C1213.415-477.956,1211.806-479.794,1209.679-479.939z
			 M1211.479-475.947c-0.035,0.547-0.287,1.057-0.701,1.414c-0.41,0.363-0.949,0.545-1.494,0.508
			c-0.547-0.035-1.057-0.287-1.418-0.699c-0.362-0.412-0.545-0.953-0.506-1.5c0.074-1.084,0.973-1.926,2.059-1.928
			c0.045,0,0.092,0,0.139,0c1.137,0.078,1.998,1.063,1.922,2.199V-475.947L1211.479-475.947z"/>
		<rect id="사각형_1833" x="1187.309" y="-477.218" fill="#FFFFFF" width="13.229" height="1.801"/>
	</g>
</g>
</svg>
