<?xml version="1.0" encoding="utf-8"?>
<!-- Generator: Adobe Illustrator 16.0.0, SVG Export Plug-In . SVG Version: 6.00 Build 0)  -->
<!DOCTYPE svg PUBLIC "-//W3C//DTD SVG 1.1//EN" "http://www.w3.org/Graphics/SVG/1.1/DTD/svg11.dtd">
<svg version="1.1" id="Layer_1" xmlns="http://www.w3.org/2000/svg" xmlns:xlink="http://www.w3.org/1999/xlink" x="0px" y="0px"
	 width="100px" height="100px" viewBox="0 0 100 100" enable-background="new 0 0 100 100" xml:space="preserve">
<text transform="matrix(1 0 0 1 30.8662 90.1133)" fill="#808080" font-family="'NanumGothicBold'" font-size="17.1666">학교</text>
<g id="그룹_4959" transform="translate(-871 -1049)">
	<g id="그룹_4952" transform="translate(191.02 1569.299)">
		<path id="패스_722" fill="#808080" d="M751.023-497.538v37.159c-0.001,1.292-1.049,2.34-2.341,2.342h-42.558
			c-1.293-0.002-2.341-1.049-2.342-2.342v-37.159h-1.8v37.159c0.003,2.285,1.855,4.139,4.142,4.141h42.558
			c2.286-0.002,4.14-1.854,4.142-4.141v-37.159H751.023z"/>
		<path id="패스_723" fill="#808080" d="M706.861-462.951c0.152,0.107,0.334,0.166,0.52,0.166c0.103,0,0.204-0.018,0.3-0.051
			c0.081-0.029,8.219-2.801,19.505,0.023c0.017,0,0.033,0,0.05,0.006c0.017,0.006,0.062,0.01,0.094,0.014
			c0.038,0.002,0.075,0.002,0.113,0c0.032,0,0.063-0.006,0.094-0.01c0.037-0.006,0.076-0.016,0.113-0.025
			c0.018-0.004,0.034-0.006,0.051-0.012c0.082-0.027,8.255-2.789,19.507,0.023c0.069,0.019,0.146,0.023,0.217,0.023
			c0.201,0,0.396-0.063,0.556-0.188c0.22-0.17,0.347-0.432,0.347-0.709v-37.253c0-0.365-0.222-0.695-0.561-0.833
			c-1.139-0.463-2.303-0.854-3.489-1.171v-7.381c0-0.322-0.172-0.621-0.45-0.781c-0.279-0.16-0.623-0.161-0.9,0l-15.658,9.146
			c-11.282-4.375-19.931,0.029-20.3,0.222c-0.297,0.156-0.483,0.464-0.482,0.8v37.253
			C706.483-463.397,706.624-463.121,706.861-462.951z M743.89-474.496c0.24-0.168,0.385-0.443,0.385-0.738v-25.834
			c0.753,0.216,1.506,0.457,2.249,0.741v35.5c-5.13-1.188-10.437-1.389-15.642-0.592L743.89-474.496z M728.528-500.614l13.947-8.146
			v33.057l-13.947,9.74V-500.614z M708.281-500.363c5.859-2.3,12.373-2.287,18.222,0.035v35.5c-3.123-0.703-6.314-1.063-9.515-1.066
			c-2.933-0.021-5.857,0.314-8.707,1.011V-500.363z"/>
	</g>
</g>
</svg>
