<?xml version="1.0" encoding="utf-8"?>
<!-- Generator: Adobe Illustrator 16.0.0, SVG Export Plug-In . SVG Version: 6.00 Build 0)  -->
<!DOCTYPE svg PUBLIC "-//W3C//DTD SVG 1.1//EN" "http://www.w3.org/Graphics/SVG/1.1/DTD/svg11.dtd">
<svg version="1.1" id="Layer_1" xmlns="http://www.w3.org/2000/svg" xmlns:xlink="http://www.w3.org/1999/xlink" x="0px" y="0px"
	 width="100px" height="100px" viewBox="0 0 100 100" enable-background="new 0 0 100 100" xml:space="preserve">
<text transform="matrix(1 0 0 1 33.4419 89.6738)" fill="#FFFFFF" font-family="'NanumGothicBold'" font-size="17.1666">학원</text>
<g>
	<path fill="#FFFFFF" d="M74.529,9.131H25.47c-0.552,0-1,0.448-1,1v34.346c0,0.552,0.448,1,1,1h16.332l-9.509,16.63
		c-0.274,0.479-0.107,1.09,0.372,1.363c0.157,0.09,0.327,0.133,0.496,0.133c0.347,0,0.685-0.183,0.869-0.504l10.077-17.625h11.978
		L66.16,63.1c0.186,0.323,0.521,0.504,0.869,0.504c0.168,0,0.339-0.041,0.494-0.131c0.479-0.275,0.646-0.886,0.373-1.365
		l-9.51-16.628h16.143c0.553,0,1-0.448,1-1V10.131C75.529,9.579,75.082,9.131,74.529,9.131z M73.529,43.477H26.47V11.131h47.059
		V43.477z"/>
	<path fill="#FFFFFF" d="M30.47,40.477h39.057c0.554,0,1-0.448,1-1V15.131c0-0.552-0.446-1-1-1H30.47c-0.552,0-1,0.448-1,1v24.346
		C29.47,40.029,29.918,40.477,30.47,40.477z M43.924,28.476v10h-3.075v-10H43.924z M48.011,28.476c1.654,0,3,1.346,3,3v4
		c0,1.654-1.348,3-3,3h-2.087v-10H48.011z M38.849,38.476h-0.838c-1.654,0-3-1.346-3-3v-4c0-1.654,1.346-3,3-3h0.838V38.476z
		 M31.47,16.131h37.057v22.346H51.984c0.635-0.838,1.024-1.871,1.024-3.001v-4c0-2.757-2.241-5-5-5h-10c-2.757,0-5,2.243-5,5v4
		c0,1.13,0.392,2.163,1.026,3.001H31.47V16.131z"/>
</g>
</svg>
